# xmcd
#
# Track frame offsets:
#	150
#	24378
#	58474
#	98330
#	129886
#
# Disc length: 2092 seconds
#
# Revision: 1
# Processed by: cddbd v1.5.2PL0 Copyright (c) Steve Scherf et al.
# Submitted via: audiograbber 1.83.01
#
DISCID=35082a05
DTITLE=Grateful Dead - 89-10-23 Charlotte Coliseum, Charlotte NC
DYEAR=1900
DGENRE=
TTITLE0=I Will Take You Home
TTITLE1=GDTRFB
TTITLE2=Standing On The Moon
TTITLE3=Turn On Your Lovelight
TTITLE4=Attics Of My Life
EXTD=
EXTT0=
EXTT1=
EXTT2=
EXTT3=
EXTT4=
PLAYORDER=
